<svg width="47" height="42" viewBox="0 0 47 42" fill="none" xmlns="http://www.w3.org/2000/svg">
<path d="M23.6485 17.1273V39.4834M23.6485 17.1273C23.6485 11.9104 23.6485 9.302 22.6331 7.3094C21.74 5.55666 20.3151 4.13164 18.5624 3.23857C16.5698 2.2233 13.9613 2.2233 8.74441 2.2233H6.41565C5.11143 2.2233 4.45931 2.2233 3.96116 2.47711C3.52298 2.70039 3.16673 3.05664 2.94345 3.49482C2.68964 3.99297 2.68964 4.64509 2.68964 5.94931V31.0999C2.68964 32.4042 2.68964 33.0563 2.94345 33.5544C3.16673 33.9927 3.52298 34.3488 3.96116 34.5721C4.45931 34.8259 5.11143 34.8259 6.41565 34.8259H13.2778C14.5357 34.8259 15.1647 34.8259 15.7729 34.9344C16.3128 35.0306 16.8394 35.1899 17.342 35.4095C17.9082 35.6566 18.4315 36.0054 19.4781 36.7034L23.6485 39.4834M23.6485 17.1273C23.6485 11.9104 23.6485 9.302 24.6638 7.3094C25.5569 5.55666 26.9818 4.13164 28.7345 3.23857C30.7272 2.2233 33.3356 2.2233 38.5525 2.2233H40.8813C42.1856 2.2233 42.8377 2.2233 43.3358 2.47711C43.7741 2.70039 44.1301 3.05664 44.3535 3.49482C44.6073 3.99297 44.6073 4.64509 44.6073 5.94931V31.0999C44.6073 32.4042 44.6073 33.0563 44.3535 33.5544C44.1301 33.9927 43.7741 34.3488 43.3358 34.5721C42.8377 34.8259 42.1856 34.8259 40.8813 34.8259H34.0191C32.7611 34.8259 32.1321 34.8259 31.5241 34.9344C30.984 35.0306 30.4575 35.1899 29.955 35.4095C29.3889 35.6566 28.8653 36.0054 27.8188 36.7034L23.6485 39.4834" stroke="#2449E5" stroke-width="4" stroke-linecap="round" stroke-linejoin="round"/>
</svg>
