<svg width="160" height="143" viewBox="0 0 160 143" fill="none" xmlns="http://www.w3.org/2000/svg">
<path d="M79.9426 57.8317V138.999M79.9426 57.8317C79.9426 38.8909 79.9426 29.4205 76.2563 22.1861C73.0138 15.8225 67.8403 10.6488 61.4768 7.4063C54.2423 3.72021 44.772 3.72021 25.8312 3.72021H17.3763C12.6411 3.72021 10.2734 3.72022 8.46486 4.64172C6.87398 5.45238 5.58055 6.74581 4.76989 8.33668C3.84839 10.1453 3.84839 12.5129 3.84839 17.2481V108.561C3.84839 113.297 3.84839 115.664 4.76989 117.473C5.58055 119.064 6.87398 120.357 8.46486 121.167C10.2734 122.089 12.6411 122.089 17.3763 122.089H42.2902C46.8575 122.089 49.141 122.089 51.3493 122.483C53.3092 122.832 55.2213 123.411 57.046 124.208C59.1016 125.105 61.0017 126.371 64.8016 128.905L79.9426 138.999M79.9426 57.8317C79.9426 38.8909 79.9426 29.4205 83.629 22.1861C86.8714 15.8225 92.045 10.6488 98.4082 7.4063C105.643 3.72021 115.113 3.72021 134.054 3.72021H142.509C147.245 3.72021 149.612 3.72022 151.421 4.64172C153.012 5.45238 154.304 6.74581 155.115 8.33668C156.037 10.1453 156.037 12.5129 156.037 17.2481V108.561C156.037 113.297 156.037 115.664 155.115 117.473C154.304 119.064 153.012 120.357 151.421 121.167C149.612 122.089 147.245 122.089 142.509 122.089H117.595C113.028 122.089 110.744 122.089 108.536 122.483C106.576 122.832 104.664 123.411 102.839 124.208C100.784 125.105 98.8833 126.371 95.0837 128.905L79.9426 138.999" stroke="#738DFF" stroke-width="7" stroke-linecap="round" stroke-linejoin="round"/>
</svg>
