<svg width="45" height="46" viewBox="0 0 45 46" fill="none" xmlns="http://www.w3.org/2000/svg">
<path fill-rule="evenodd" clip-rule="evenodd" d="M38.4391 0.412109C41.7774 0.412109 44.4834 3.16821 44.4834 6.56802V39.3995C44.4834 42.7994 41.7774 45.5554 38.4391 45.5554H6.20276C2.86459 45.5554 0.158447 42.7994 0.158447 39.3995V6.56802C0.158447 3.16821 2.86459 0.412109 6.20276 0.412109H38.4391ZM38.4391 4.51605C39.5518 4.51605 40.4538 5.43475 40.4538 6.56802V39.3995C40.4538 40.5328 39.5518 41.4515 38.4391 41.4515H28.3652V27.0875H32.5483C33.4155 27.0875 34.1853 26.5224 34.4597 25.6844L35.3522 22.9573C35.6784 21.9607 34.9501 20.9316 33.9187 20.9316H28.3652V16.8277C28.3652 15.8017 29.3726 14.7757 30.38 14.7757H34.4095C35.5223 14.7757 36.4243 13.857 36.4243 12.7238V11.3161C36.4243 10.6533 36.0087 10.059 35.3792 9.88989C32.7383 9.18007 30.38 9.18007 30.38 9.18007C25.3431 9.18007 22.3209 12.7238 22.3209 15.8017V20.9316H18.2914C17.1787 20.9316 16.2766 21.8503 16.2766 22.9836V25.0355C16.2766 26.1688 17.1786 27.0875 18.2914 27.0875H22.3209V41.4515H6.20276C5.09004 41.4515 4.18799 40.5328 4.18799 39.3995V6.56802C4.18799 5.43475 5.09004 4.51605 6.20276 4.51605H38.4391Z" fill="#F6F5EE"/>
</svg>
