<svg width="45" height="46" viewBox="0 0 45 46" fill="none" xmlns="http://www.w3.org/2000/svg">
<path d="M34.4319 8.54639C32.9591 8.54639 31.8545 9.67139 31.8545 11.1714C31.8545 12.6714 32.9591 13.7964 34.4319 13.7964C35.9047 13.7964 37.0093 12.6714 37.0093 11.1714C37.0093 9.67139 35.9047 8.54639 34.4319 8.54639Z" fill="#F6F5EE"/>
<path d="M22.8336 11.9214C16.7583 11.9214 11.9717 16.9839 11.9717 22.9839C11.9717 28.9839 16.9424 34.0464 22.8336 34.0464C28.7249 34.0464 33.6956 28.9839 33.6956 22.9839C33.6956 16.9839 28.909 11.9214 22.8336 11.9214ZM22.8336 30.1089C18.9675 30.1089 15.8378 26.9214 15.8378 22.9839C15.8378 19.0464 18.9675 15.8589 22.8336 15.8589C26.6998 15.8589 29.8295 19.0464 29.8295 22.9839C29.8295 26.9214 26.6998 30.1089 22.8336 30.1089Z" fill="#F6F5EE"/>
<path d="M31.6704 0.296387H14.1808C6.63269 0.296387 0.741455 6.29639 0.741455 13.7964V31.6089C0.741455 39.1089 6.63269 45.1089 13.9967 45.1089H31.4863C38.8504 45.1089 44.7416 39.1089 44.7416 31.6089V13.7964C44.9257 6.29639 39.0345 0.296387 31.6704 0.296387ZM40.6914 31.7964C40.6914 36.8589 36.6411 41.1714 31.4863 41.1714H13.9967C9.026 41.1714 4.79168 37.0464 4.79168 31.7964V13.9839C4.79168 8.92139 8.8419 4.60889 13.9967 4.60889H31.4863C36.457 4.60889 40.6914 8.73389 40.6914 13.9839V31.7964Z" fill="#F6F5EE"/>
</svg>
