<svg width="45" height="47" viewBox="0 0 45 47" fill="none" xmlns="http://www.w3.org/2000/svg">
<path d="M11.3512 15.1508C13.03 15.1508 14.3909 13.7648 14.3909 12.055C14.3909 10.3453 13.03 8.95923 11.3512 8.95923C9.67243 8.95923 8.31152 10.3453 8.31152 12.055C8.31152 13.7648 9.67243 15.1508 11.3512 15.1508Z" fill="#F6F5EE"/>
<path d="M8.31152 19.2787C8.31152 18.1389 9.21881 17.2148 10.338 17.2148H12.3644C13.4836 17.2148 14.3909 18.1389 14.3909 19.2787V35.7896C14.3909 36.9295 13.4836 37.8535 12.3644 37.8535H10.338C9.21881 37.8535 8.31152 36.9295 8.31152 35.7896V19.2787Z" fill="#F6F5EE"/>
<path d="M20.4703 37.8535H22.4967C23.616 37.8535 24.5232 36.9295 24.5232 35.7896V26.5022C24.5232 23.4064 30.6026 21.3426 30.6026 25.4703V35.7905C30.6026 36.9303 31.5098 37.8535 32.629 37.8535H34.6555C35.7747 37.8535 36.6819 36.9295 36.6819 35.7896V23.4064C36.6819 19.2787 33.6422 17.2148 29.5893 17.2148C25.5364 17.2148 24.5232 20.3106 24.5232 20.3106V19.2787C24.5232 18.1389 23.616 17.2148 22.4967 17.2148H20.4703C19.3511 17.2148 18.4438 18.1389 18.4438 19.2787V35.7896C18.4438 36.9295 19.3511 37.8535 20.4703 37.8535Z" fill="#F6F5EE"/>
<path fill-rule="evenodd" clip-rule="evenodd" d="M38.7086 0.703857C42.0662 0.703857 44.788 3.47594 44.788 6.89545V39.9173C44.788 43.3369 42.0662 46.1089 38.7086 46.1089H6.28541C2.92788 46.1089 0.206055 43.3369 0.206055 39.9173V6.89545C0.206055 3.47594 2.92788 0.703857 6.28541 0.703857H38.7086ZM38.7086 4.83159C39.8278 4.83159 40.7351 5.75562 40.7351 6.89545V39.9173C40.7351 41.0572 39.8278 41.9812 38.7086 41.9812H6.28541C5.16624 41.9812 4.25896 41.0572 4.25896 39.9173V6.89545C4.25896 5.75562 5.16624 4.83159 6.28541 4.83159H38.7086Z" fill="#F6F5EE"/>
</svg>
