<svg width="202" height="48" viewBox="0 0 202 48" fill="none" xmlns="http://www.w3.org/2000/svg">
<path d="M22.9989 23.435V45.7911M22.9989 23.435C22.9989 18.2181 22.9989 15.6097 21.9835 13.6171C21.0904 11.8643 19.6655 10.4393 17.9128 9.54624C15.9202 8.53097 13.3117 8.53098 8.09481 8.53098H5.76605C4.46183 8.53098 3.80971 8.53098 3.31156 8.78479C2.87339 9.00807 2.51713 9.36432 2.29385 9.8025C2.04004 10.3006 2.04004 10.9528 2.04004 12.257V37.4076C2.04004 38.7119 2.04004 39.364 2.29385 39.8621C2.51713 40.3004 2.87339 40.6564 3.31156 40.8798C3.80971 41.1336 4.46183 41.1336 5.76605 41.1336H12.6282C13.8861 41.1336 14.5151 41.1336 15.1233 41.2421C15.6632 41.3383 16.1898 41.4976 16.6924 41.7172C17.2586 41.9643 17.7819 42.3131 18.8285 43.011L22.9989 45.7911M22.9989 23.435C22.9989 18.2181 22.9989 15.6097 24.0142 13.6171C24.9073 11.8643 26.3322 10.4393 28.0849 9.54624C30.0776 8.53097 32.686 8.53098 37.9029 8.53098H40.2317C41.536 8.53098 42.1881 8.53098 42.6862 8.78479C43.1245 9.00807 43.4805 9.36432 43.7039 9.8025C43.9577 10.3006 43.9577 10.9528 43.9577 12.257V37.4076C43.9577 38.7119 43.9577 39.364 43.7039 39.8621C43.4805 40.3004 43.1245 40.6564 42.6862 40.8798C42.1881 41.1336 41.536 41.1336 40.2317 41.1336H33.3695C32.1115 41.1336 31.4825 41.1336 30.8745 41.2421C30.3345 41.3383 29.8079 41.4976 29.3054 41.7172C28.7393 41.9643 28.2157 42.3131 27.1692 43.011L22.9989 45.7911" stroke="#0A2CC2" stroke-width="4" stroke-linecap="round" stroke-linejoin="round"/>
<path d="M64.9149 16.3265V20.5865H71.7849V24.5465H64.9149V29.1665H72.6849V33.2765H59.7849V12.2165H72.6849V16.3265H64.9149ZM88.9154 20.6165V24.8765H75.7154V20.6165H88.9154ZM106.168 22.4765C107.388 22.7365 108.368 23.3465 109.108 24.3065C109.848 25.2465 110.218 26.3265 110.218 27.5465C110.218 29.3065 109.598 30.7065 108.358 31.7465C107.138 32.7665 105.428 33.2765 103.228 33.2765H93.4177V12.2165H102.898C105.038 12.2165 106.708 12.7065 107.908 13.6865C109.128 14.6665 109.738 15.9965 109.738 17.6765C109.738 18.9165 109.408 19.9465 108.748 20.7665C108.108 21.5865 107.248 22.1565 106.168 22.4765ZM98.5477 20.7365H101.908C102.748 20.7365 103.388 20.5565 103.828 20.1965C104.288 19.8165 104.518 19.2665 104.518 18.5465C104.518 17.8265 104.288 17.2765 103.828 16.8965C103.388 16.5165 102.748 16.3265 101.908 16.3265H98.5477V20.7365ZM102.328 29.1365C103.188 29.1365 103.848 28.9465 104.308 28.5665C104.788 28.1665 105.028 27.5965 105.028 26.8565C105.028 26.1165 104.778 25.5365 104.278 25.1165C103.798 24.6965 103.128 24.4865 102.268 24.4865H98.5477V29.1365H102.328ZM120.813 33.5165C119.173 33.5165 117.693 33.1665 116.373 32.4665C115.073 31.7665 114.043 30.7665 113.283 29.4665C112.543 28.1665 112.173 26.6465 112.173 24.9065C112.173 23.1865 112.553 21.6765 113.313 20.3765C114.073 19.0565 115.113 18.0465 116.433 17.3465C117.753 16.6465 119.233 16.2965 120.873 16.2965C122.513 16.2965 123.993 16.6465 125.313 17.3465C126.633 18.0465 127.673 19.0565 128.433 20.3765C129.193 21.6765 129.573 23.1865 129.573 24.9065C129.573 26.6265 129.183 28.1465 128.403 29.4665C127.643 30.7665 126.593 31.7665 125.253 32.4665C123.933 33.1665 122.453 33.5165 120.813 33.5165ZM120.813 29.0765C121.793 29.0765 122.623 28.7165 123.303 27.9965C124.003 27.2765 124.353 26.2465 124.353 24.9065C124.353 23.5665 124.013 22.5365 123.333 21.8165C122.673 21.0965 121.853 20.7365 120.873 20.7365C119.873 20.7365 119.043 21.0965 118.383 21.8165C117.723 22.5165 117.393 23.5465 117.393 24.9065C117.393 26.2465 117.713 27.2765 118.353 27.9965C119.013 28.7165 119.833 29.0765 120.813 29.0765ZM137.425 19.3265C138.025 18.4065 138.775 17.6865 139.675 17.1665C140.575 16.6265 141.575 16.3565 142.675 16.3565V21.7865H141.265C139.985 21.7865 139.025 22.0665 138.385 22.6265C137.745 23.1665 137.425 24.1265 137.425 25.5065V33.2765H132.295V16.5365H137.425V19.3265ZM150.257 19.3265C150.857 18.4065 151.607 17.6865 152.507 17.1665C153.407 16.6265 154.407 16.3565 155.507 16.3565V21.7865H154.097C152.817 21.7865 151.857 22.0665 151.217 22.6265C150.577 23.1665 150.257 24.1265 150.257 25.5065V33.2765H145.127V16.5365H150.257V19.3265ZM165.579 33.5165C163.939 33.5165 162.459 33.1665 161.139 32.4665C159.839 31.7665 158.809 30.7665 158.049 29.4665C157.309 28.1665 156.939 26.6465 156.939 24.9065C156.939 23.1865 157.319 21.6765 158.079 20.3765C158.839 19.0565 159.879 18.0465 161.199 17.3465C162.519 16.6465 163.999 16.2965 165.639 16.2965C167.279 16.2965 168.759 16.6465 170.079 17.3465C171.399 18.0465 172.439 19.0565 173.199 20.3765C173.959 21.6765 174.339 23.1865 174.339 24.9065C174.339 26.6265 173.949 28.1465 173.169 29.4665C172.409 30.7665 171.359 31.7665 170.019 32.4665C168.699 33.1665 167.219 33.5165 165.579 33.5165ZM165.579 29.0765C166.559 29.0765 167.389 28.7165 168.069 27.9965C168.769 27.2765 169.119 26.2465 169.119 24.9065C169.119 23.5665 168.779 22.5365 168.099 21.8165C167.439 21.0965 166.619 20.7365 165.639 20.7365C164.639 20.7365 163.809 21.0965 163.149 21.8165C162.489 22.5165 162.159 23.5465 162.159 24.9065C162.159 26.2465 162.479 27.2765 163.119 27.9965C163.779 28.7165 164.599 29.0765 165.579 29.0765ZM201.09 16.5365L196.56 33.2765H190.89L188.25 22.4165L185.52 33.2765H179.88L175.32 16.5365H180.45L182.82 28.5065L185.64 16.5365H191.07L193.92 28.4465L196.26 16.5365H201.09Z" fill="#0A2CC2"/>
</svg>
