<svg width="203" height="49" viewBox="0 0 203 49" fill="none" xmlns="http://www.w3.org/2000/svg">
<path d="M23.6485 24.1273V46.4834M23.6485 24.1273C23.6485 18.9104 23.6485 16.302 22.6331 14.3094C21.74 12.5567 20.3151 11.1316 18.5624 10.2386C16.5698 9.2233 13.9613 9.2233 8.74441 9.2233H6.41565C5.11143 9.2233 4.45931 9.2233 3.96116 9.47711C3.52298 9.70039 3.16673 10.0566 2.94345 10.4948C2.68964 10.993 2.68964 11.6451 2.68964 12.9493V38.0999C2.68964 39.4042 2.68964 40.0563 2.94345 40.5544C3.16673 40.9927 3.52298 41.3488 3.96116 41.5721C4.45931 41.8259 5.11143 41.8259 6.41565 41.8259H13.2778C14.5357 41.8259 15.1647 41.8259 15.7729 41.9344C16.3128 42.0306 16.8394 42.1899 17.342 42.4095C17.9082 42.6566 18.4315 43.0054 19.4781 43.7034L23.6485 46.4834M23.6485 24.1273C23.6485 18.9104 23.6485 16.302 24.6638 14.3094C25.5569 12.5567 26.9818 11.1316 28.7345 10.2386C30.7272 9.2233 33.3356 9.2233 38.5525 9.2233H40.8813C42.1856 9.2233 42.8377 9.2233 43.3358 9.47711C43.7741 9.70039 44.1301 10.0566 44.3535 10.4948C44.6073 10.993 44.6073 11.6451 44.6073 12.9493V38.0999C44.6073 39.4042 44.6073 40.0563 44.3535 40.5544C44.1301 40.9927 43.7741 41.3488 43.3358 41.5721C42.8377 41.8259 42.1856 41.8259 40.8813 41.8259H34.0191C32.7611 41.8259 32.1321 41.8259 31.5241 41.9344C30.984 42.0306 30.4575 42.1899 29.955 42.4095C29.3889 42.6566 28.8653 43.0054 27.8188 43.7034L23.6485 46.4834" stroke="#2449E5" stroke-width="4" stroke-linecap="round" stroke-linejoin="round"/>
<path d="M65.5645 17.0188V21.2788H72.4345V25.2388H65.5645V29.8588H73.3345V33.9688H60.4345V12.9088H73.3345V17.0188H65.5645ZM89.565 21.3088V25.5688H76.365V21.3088H89.565ZM106.817 23.1688C108.037 23.4288 109.017 24.0388 109.757 24.9988C110.497 25.9388 110.867 27.0188 110.867 28.2388C110.867 29.9988 110.247 31.3988 109.007 32.4388C107.787 33.4588 106.077 33.9688 103.877 33.9688H94.0673V12.9088H103.547C105.687 12.9088 107.357 13.3988 108.557 14.3788C109.777 15.3588 110.387 16.6888 110.387 18.3688C110.387 19.6088 110.057 20.6388 109.397 21.4588C108.757 22.2788 107.897 22.8488 106.817 23.1688ZM99.1973 21.4288H102.557C103.397 21.4288 104.037 21.2488 104.477 20.8888C104.937 20.5088 105.167 19.9588 105.167 19.2388C105.167 18.5188 104.937 17.9688 104.477 17.5888C104.037 17.2088 103.397 17.0188 102.557 17.0188H99.1973V21.4288ZM102.977 29.8288C103.837 29.8288 104.497 29.6388 104.957 29.2588C105.437 28.8588 105.677 28.2888 105.677 27.5488C105.677 26.8088 105.427 26.2288 104.927 25.8088C104.447 25.3888 103.777 25.1788 102.917 25.1788H99.1973V29.8288H102.977ZM121.463 34.2088C119.823 34.2088 118.343 33.8588 117.023 33.1588C115.723 32.4588 114.693 31.4588 113.933 30.1588C113.193 28.8588 112.823 27.3388 112.823 25.5988C112.823 23.8788 113.203 22.3688 113.963 21.0688C114.723 19.7488 115.763 18.7388 117.083 18.0388C118.403 17.3388 119.883 16.9888 121.523 16.9888C123.163 16.9888 124.643 17.3388 125.963 18.0388C127.283 18.7388 128.323 19.7488 129.083 21.0688C129.843 22.3688 130.223 23.8788 130.223 25.5988C130.223 27.3188 129.833 28.8388 129.053 30.1588C128.293 31.4588 127.243 32.4588 125.903 33.1588C124.583 33.8588 123.103 34.2088 121.463 34.2088ZM121.463 29.7688C122.443 29.7688 123.273 29.4088 123.953 28.6888C124.653 27.9688 125.003 26.9388 125.003 25.5988C125.003 24.2588 124.663 23.2288 123.983 22.5088C123.323 21.7888 122.503 21.4288 121.523 21.4288C120.523 21.4288 119.693 21.7888 119.033 22.5088C118.373 23.2088 118.043 24.2388 118.043 25.5988C118.043 26.9388 118.363 27.9688 119.003 28.6888C119.663 29.4088 120.483 29.7688 121.463 29.7688ZM138.074 20.0188C138.674 19.0988 139.424 18.3788 140.324 17.8588C141.224 17.3188 142.224 17.0488 143.324 17.0488V22.4788H141.914C140.634 22.4788 139.674 22.7588 139.034 23.3188C138.394 23.8588 138.074 24.8188 138.074 26.1988V33.9688H132.944V17.2288H138.074V20.0188ZM150.906 20.0188C151.506 19.0988 152.256 18.3788 153.156 17.8588C154.056 17.3188 155.056 17.0488 156.156 17.0488V22.4788H154.746C153.466 22.4788 152.506 22.7588 151.866 23.3188C151.226 23.8588 150.906 24.8188 150.906 26.1988V33.9688H145.776V17.2288H150.906V20.0188ZM166.228 34.2088C164.588 34.2088 163.108 33.8588 161.788 33.1588C160.488 32.4588 159.458 31.4588 158.698 30.1588C157.958 28.8588 157.588 27.3388 157.588 25.5988C157.588 23.8788 157.968 22.3688 158.728 21.0688C159.488 19.7488 160.528 18.7388 161.848 18.0388C163.168 17.3388 164.648 16.9888 166.288 16.9888C167.928 16.9888 169.408 17.3388 170.728 18.0388C172.048 18.7388 173.088 19.7488 173.848 21.0688C174.608 22.3688 174.988 23.8788 174.988 25.5988C174.988 27.3188 174.598 28.8388 173.818 30.1588C173.058 31.4588 172.008 32.4588 170.668 33.1588C169.348 33.8588 167.868 34.2088 166.228 34.2088ZM166.228 29.7688C167.208 29.7688 168.038 29.4088 168.718 28.6888C169.418 27.9688 169.768 26.9388 169.768 25.5988C169.768 24.2588 169.428 23.2288 168.748 22.5088C168.088 21.7888 167.268 21.4288 166.288 21.4288C165.288 21.4288 164.458 21.7888 163.798 22.5088C163.138 23.2088 162.808 24.2388 162.808 25.5988C162.808 26.9388 163.128 27.9688 163.768 28.6888C164.428 29.4088 165.248 29.7688 166.228 29.7688ZM201.74 17.2288L197.21 33.9688H191.54L188.9 23.1088L186.17 33.9688H180.53L175.97 17.2288H181.1L183.47 29.1988L186.29 17.2288H191.72L194.57 29.1388L196.91 17.2288H201.74Z" fill="#2449E5"/>
</svg>
